<svg width="24" height="24" viewBox="0 0 24 24" fill="none" xmlns="http://www.w3.org/2000/svg">
<path d="M20.6667 5.33325H14.6667V21.9999H22.0001V6.66659C22.0001 6.31296 21.8596 5.97382 21.6096 5.72378C21.3595 5.47373 21.0204 5.33325 20.6667 5.33325ZM17.3334 16.6666H16.0001V15.3333H17.3334V16.6666ZM17.3334 13.3333H16.0001V11.9999H17.3334V13.3333ZM17.3334 9.99992H16.0001V8.66658H17.3334V9.99992ZM20.0001 16.6666H18.6667V15.3333H20.0001V16.6666ZM20.0001 13.3333H18.6667V11.9999H20.0001V13.3333ZM20.0001 9.99992H18.6667V8.66658H20.0001V9.99992Z" fill="white"/>
<path d="M11.9201 2H4.08008C3.70524 2 3.34576 2.1489 3.0807 2.41396C2.81565 2.67901 2.66675 3.03849 2.66675 3.41333V22H6.00008V20H10.0001V22H13.3334V3.41333C13.3334 3.03849 13.1845 2.67901 12.9195 2.41396C12.6544 2.1489 12.2949 2 11.9201 2ZM6.00008 16.6667H4.66675V15.3333H6.00008V16.6667ZM6.00008 13.3333H4.66675V12H6.00008V13.3333ZM6.00008 10H4.66675V8.66667H6.00008V10ZM6.00008 6.66667H4.66675V5.33333H6.00008V6.66667ZM8.66675 16.6667H7.33342V15.3333H8.66675V16.6667ZM8.66675 13.3333H7.33342V12H8.66675V13.3333ZM8.66675 10H7.33342V8.66667H8.66675V10ZM8.66675 6.66667H7.33342V5.33333H8.66675V6.66667ZM11.3334 16.6667H10.0001V15.3333H11.3334V16.6667ZM11.3334 13.3333H10.0001V12H11.3334V13.3333ZM11.3334 10H10.0001V8.66667H11.3334V10ZM11.3334 6.66667H10.0001V5.33333H11.3334V6.66667Z" fill="white"/>
</svg>
