<svg width="24" height="24" viewBox="0 0 24 24" fill="none" xmlns="http://www.w3.org/2000/svg">
<path d="M20.6665 5.3335H14.6665V22.0002H21.9998V6.66683C21.9998 6.31321 21.8594 5.97407 21.6093 5.72402C21.3593 5.47397 21.0201 5.3335 20.6665 5.3335ZM17.3332 16.6668H15.9998V15.3335H17.3332V16.6668ZM17.3332 13.3335H15.9998V12.0002H17.3332V13.3335ZM17.3332 10.0002H15.9998V8.66683H17.3332V10.0002ZM19.9998 16.6668H18.6665V15.3335H19.9998V16.6668ZM19.9998 13.3335H18.6665V12.0002H19.9998V13.3335ZM19.9998 10.0002H18.6665V8.66683H19.9998V10.0002Z" fill="#475467"/>
<path d="M11.9198 2H4.07984C3.705 2 3.34551 2.1489 3.08046 2.41396C2.81541 2.67901 2.6665 3.03849 2.6665 3.41333V22H5.99984V20H9.99984V22H13.3332V3.41333C13.3332 3.03849 13.1843 2.67901 12.9192 2.41396C12.6542 2.1489 12.2947 2 11.9198 2ZM5.99984 16.6667H4.6665V15.3333H5.99984V16.6667ZM5.99984 13.3333H4.6665V12H5.99984V13.3333ZM5.99984 10H4.6665V8.66667H5.99984V10ZM5.99984 6.66667H4.6665V5.33333H5.99984V6.66667ZM8.6665 16.6667H7.33317V15.3333H8.6665V16.6667ZM8.6665 13.3333H7.33317V12H8.6665V13.3333ZM8.6665 10H7.33317V8.66667H8.6665V10ZM8.6665 6.66667H7.33317V5.33333H8.6665V6.66667ZM11.3332 16.6667H9.99984V15.3333H11.3332V16.6667ZM11.3332 13.3333H9.99984V12H11.3332V13.3333ZM11.3332 10H9.99984V8.66667H11.3332V10ZM11.3332 6.66667H9.99984V5.33333H11.3332V6.66667Z" fill="#475467"/>
</svg>
