<svg width="20" height="20" viewBox="0 0 20 20" fill="none" xmlns="http://www.w3.org/2000/svg">
<path fill-rule="evenodd" clip-rule="evenodd" d="M4.16634 16.667H15.833C16.054 16.667 16.266 16.7548 16.4223 16.9111C16.5785 17.0673 16.6663 17.2793 16.6663 17.5003C16.6663 17.7213 16.5785 17.9333 16.4223 18.0896C16.266 18.2459 16.054 18.3337 15.833 18.3337H4.16634C3.94533 18.3337 3.73337 18.2459 3.57709 18.0896C3.42081 17.9333 3.33301 17.7213 3.33301 17.5003C3.33301 17.2793 3.42081 17.0673 3.57709 16.9111C3.73337 16.7548 3.94533 16.667 4.16634 16.667ZM3.33301 12.5003L11.6663 4.16699L14.1663 6.66699L5.83301 15.0003H3.33301V12.5003ZM12.4997 3.33366L14.1663 1.66699L16.6663 4.16699L14.9988 5.83449L12.4997 3.33366Z" fill="white"/>
</svg>
