<svg width="49" height="48" viewBox="0 0 49 48" fill="none" xmlns="http://www.w3.org/2000/svg">
<path d="M0.5 24C0.5 10.7452 11.2452 0 24.5 0C37.7548 0 48.5 10.7452 48.5 24C48.5 37.2548 37.7548 48 24.5 48C11.2452 48 0.5 37.2548 0.5 24Z" fill="white"/>
<path d="M20.8803 20.8534C21.5763 22.303 22.5251 23.6616 23.7266 24.8632C24.9282 26.0648 26.2869 27.0136 27.7365 27.7096C27.8612 27.7694 27.9235 27.7994 28.0024 27.8224C28.2828 27.9041 28.627 27.8454 28.8644 27.6754C28.9313 27.6275 28.9884 27.5704 29.1027 27.4561C29.4523 27.1064 29.6271 26.9316 29.8029 26.8174C30.4658 26.3864 31.3204 26.3864 31.9833 26.8174C32.1591 26.9316 32.3339 27.1064 32.6835 27.4561L32.8783 27.6509C33.4098 28.1824 33.6755 28.4481 33.8198 28.7335C34.1069 29.301 34.1069 29.9713 33.8198 30.5389C33.6755 30.8242 33.4098 31.09 32.8783 31.6214L32.7207 31.779C32.1911 32.3087 31.9263 32.5735 31.5662 32.7757C31.1667 33.0001 30.5462 33.1615 30.088 33.1601C29.6751 33.1589 29.3928 33.0788 28.8284 32.9186C25.795 32.0576 22.9326 30.4332 20.5447 28.0452C18.1567 25.6572 16.5322 22.7948 15.6712 19.7614C15.511 19.197 15.4309 18.9148 15.4297 18.5018C15.4283 18.0436 15.5897 17.4231 15.8141 17.0236C16.0164 16.6636 16.2812 16.3988 16.8108 15.8691L16.9684 15.7115C17.4999 15.1801 17.7656 14.9143 18.051 14.77C18.6185 14.4829 19.2888 14.4829 19.8564 14.77C20.1417 14.9143 20.4075 15.1801 20.9389 15.7115L21.1338 15.9064C21.4834 16.256 21.6582 16.4308 21.7725 16.6066C22.2035 17.2694 22.2035 18.124 21.7725 18.7869C21.6582 18.9627 21.4834 19.1375 21.1338 19.4871C21.0195 19.6014 20.9623 19.6586 20.9145 19.7254C20.7445 19.9628 20.6858 20.3071 20.7675 20.5874C20.7905 20.6663 20.8204 20.7287 20.8803 20.8534Z" stroke="#23B695" stroke-width="2" stroke-linecap="round" stroke-linejoin="round"/>
</svg>
