<svg width="24" height="24" viewBox="0 0 24 24" fill="none" xmlns="http://www.w3.org/2000/svg">
<path d="M20.0567 3.4444L20.5503 3.93275C21.2306 4.6065 21.1277 5.80088 20.3186 6.60044L10.1381 16.6711L6.83974 17.8647C6.42556 18.0153 6.02226 17.82 5.94026 17.4301C5.91264 17.2887 5.92568 17.1424 5.97791 17.008L7.2079 13.717L17.3599 3.67368C18.169 2.87411 19.3764 2.77065 20.0567 3.4444ZM9.69381 4.44592C9.80369 4.44592 9.9125 4.46733 10.014 4.50893C10.1155 4.55053 10.2078 4.61149 10.2855 4.68835C10.3632 4.76521 10.4248 4.85646 10.4668 4.95688C10.5089 5.0573 10.5305 5.16493 10.5305 5.27363C10.5305 5.38232 10.5089 5.48995 10.4668 5.59038C10.4248 5.6908 10.3632 5.78204 10.2855 5.8589C10.2078 5.93576 10.1155 5.99673 10.014 6.03833C9.9125 6.07992 9.80369 6.10133 9.69381 6.10133H6.3469C5.90308 6.10133 5.47743 6.27574 5.1636 6.58619C4.84976 6.89664 4.67345 7.3177 4.67345 7.75674V17.6892C4.67345 18.1282 4.84976 18.5493 5.1636 18.8597C5.47743 19.1702 5.90308 19.3446 6.3469 19.3446H16.3876C16.8314 19.3446 17.2571 19.1702 17.5709 18.8597C17.8848 18.5493 18.0611 18.1282 18.0611 17.6892V14.3784C18.0611 14.1588 18.1492 13.9483 18.3061 13.7931C18.4631 13.6379 18.6759 13.5507 18.8978 13.5507C19.1197 13.5507 19.3325 13.6379 19.4895 13.7931C19.6464 13.9483 19.7345 14.1588 19.7345 14.3784V17.6892C19.7345 18.5673 19.3819 19.4094 18.7542 20.0303C18.1266 20.6512 17.2753 21 16.3876 21H6.3469C5.45925 21 4.60795 20.6512 3.98029 20.0303C3.35262 19.4094 3 18.5673 3 17.6892V7.75674C3 6.87866 3.35262 6.03654 3.98029 5.41564C4.60795 4.79474 5.45925 4.44592 6.3469 4.44592H9.69381Z" fill="#475467"/>
</svg>
