<svg width="16" height="18" viewBox="0 0 16 18" fill="none" xmlns="http://www.w3.org/2000/svg">
<path d="M8.00049 0.75C7.00593 0.75 6.0521 1.14509 5.34884 1.84835C4.64558 2.55161 4.25049 3.50544 4.25049 4.5C4.25049 5.49456 4.64558 6.44839 5.34884 7.15165C6.0521 7.85491 7.00593 8.25 8.00049 8.25C8.99505 8.25 9.94888 7.85491 10.6521 7.15165C11.3554 6.44839 11.7505 5.49456 11.7505 4.5C11.7505 3.50544 11.3554 2.55161 10.6521 1.84835C9.94888 1.14509 8.99505 0.75 8.00049 0.75ZM4.00049 10.25C3.00593 10.25 2.0521 10.6451 1.34884 11.3483C0.645576 12.0516 0.250488 13.0054 0.250488 14V15.188C0.250488 15.942 0.796488 16.584 1.54049 16.705C5.81849 17.404 10.1825 17.404 14.4605 16.705C14.8206 16.6464 15.148 16.4616 15.3844 16.1837C15.6207 15.9057 15.7505 15.5528 15.7505 15.188V14C15.7505 13.0054 15.3554 12.0516 14.6521 11.3483C13.9489 10.6451 12.995 10.25 12.0005 10.25H11.6605C11.4755 10.25 11.2915 10.28 11.1165 10.336L10.2505 10.619C8.78845 11.0962 7.21253 11.0962 5.75049 10.619L4.88449 10.336C4.70914 10.2789 4.52589 10.2499 4.34149 10.25H4.00049Z" fill="#475467"/>
</svg>
