<svg width="24" height="24" viewBox="0 0 24 24" fill="none" xmlns="http://www.w3.org/2000/svg">
<path d="M12.0005 3.75C11.0059 3.75 10.0521 4.14509 9.34884 4.84835C8.64558 5.55161 8.25049 6.50544 8.25049 7.5C8.25049 8.49456 8.64558 9.44839 9.34884 10.1516C10.0521 10.8549 11.0059 11.25 12.0005 11.25C12.995 11.25 13.9489 10.8549 14.6521 10.1516C15.3554 9.44839 15.7505 8.49456 15.7505 7.5C15.7505 6.50544 15.3554 5.55161 14.6521 4.84835C13.9489 4.14509 12.995 3.75 12.0005 3.75ZM8.00049 13.25C7.00593 13.25 6.0521 13.6451 5.34884 14.3483C4.64558 15.0516 4.25049 16.0054 4.25049 17V18.188C4.25049 18.942 4.79649 19.584 5.54049 19.705C9.81849 20.404 14.1825 20.404 18.4605 19.705C18.8206 19.6464 19.148 19.4616 19.3844 19.1837C19.6207 18.9057 19.7505 18.5528 19.7505 18.188V17C19.7505 16.0054 19.3554 15.0516 18.6521 14.3483C17.9489 13.6451 16.995 13.25 16.0005 13.25H15.6605C15.4755 13.25 15.2915 13.28 15.1165 13.336L14.2505 13.619C12.7884 14.0962 11.2125 14.0962 9.75049 13.619L8.88449 13.336C8.70914 13.2789 8.52589 13.2499 8.34149 13.25H8.00049Z" fill="white"/>
</svg>
